<svg width="556" height="145" viewBox="0 0 556 145" fill="none" xmlns="http://www.w3.org/2000/svg">
<path d="M3.3 49V-3.33786e-06H0.5V49H3.3ZM50.8426 49V-3.33786e-06H48.0426V44.8L14.7926 -3.33786e-06H11.6426V49H14.4426V4.2L47.6926 49H50.8426ZM81.9335 49L103.004 -3.33786e-06H99.9935L80.4635 45.43L60.9335 -3.33786e-06H57.8535L78.9235 49H81.9335ZM109.433 -3.33786e-06V2.8H142.893V-3.33786e-06H109.433ZM109.433 23.1V25.9H138.693V23.1H109.433ZM109.433 46.2V49H143.593V46.2H109.433ZM165.681 49C174.921 49 182.831 45.08 182.831 37.31C182.831 30.52 177.581 27.16 170.301 24.29L163.441 21.56C155.531 18.41 151.821 15.68 151.821 11.2C151.821 6.23 157.281 2.8 165.401 2.8C171.211 2.8 177.091 5.25 179.751 8.47L181.921 6.72C178.491 2.45 171.911 -3.33786e-06 165.401 -3.33786e-06C156.301 -3.33786e-06 149.021 4.2 149.021 11.2C149.021 17.64 154.621 21.07 162.391 24.15L169.251 26.88C176.111 29.54 180.031 32.13 180.031 37.31C180.031 42.84 174.291 46.2 165.681 46.2C156.091 46.2 150.561 41.65 149.161 40.18L147.131 42.14C149.021 44.1 155.181 49 165.681 49ZM207.06 49V2.8H226.66V-3.33786e-06H184.66V2.8H204.26V49H207.06ZM271.57 49C280.81 49 288.72 45.08 288.72 37.31C288.72 30.52 283.47 27.16 276.19 24.29L269.33 21.56C261.42 18.41 257.71 15.68 257.71 11.2C257.71 6.23 263.17 2.8 271.29 2.8C277.1 2.8 282.98 5.25 285.64 8.47L287.81 6.72C284.38 2.45 277.8 -3.33786e-06 271.29 -3.33786e-06C262.19 -3.33786e-06 254.91 4.2 254.91 11.2C254.91 17.64 260.51 21.07 268.28 24.15L275.14 26.88C282 29.54 285.92 32.13 285.92 37.31C285.92 42.84 280.18 46.2 271.57 46.2C261.98 46.2 256.45 41.65 255.05 40.18L253.02 42.14C254.91 44.1 261.07 49 271.57 49ZM316.133 -3.33786e-06H313.123L292.053 49H295.133L314.663 3.57L334.193 49H337.203L316.133 -3.33786e-06ZM344.211 2.8H379.631V-3.33786e-06H344.211V2.8ZM376.131 23.1H344.211V49H347.011V25.9H376.131V23.1ZM388.202 -3.33786e-06V2.8H421.662V-3.33786e-06H388.202ZM388.202 23.1V25.9H417.462V23.1H388.202ZM388.202 46.2V49H422.362V46.2H388.202ZM465.087 49V46.2H432.187V-3.33786e-06H429.387V49H465.087ZM478.831 49V27.79L500.251 -3.33786e-06H496.751L477.431 24.99L458.181 -3.33786e-06H454.611L476.031 27.79V49H478.831Z" fill="white"/>
<path d="M3.3 143V94H0.5V143H3.3ZM50.8426 143V94H48.0426V138.8L14.7926 94H11.6426V143H14.4426V98.2L47.6926 143H50.8426ZM81.9335 143L103.004 94H99.9935L80.4635 139.43L60.9335 94H57.8535L78.9235 143H81.9335ZM109.433 94V96.8H142.893V94H109.433ZM109.433 117.1V119.9H138.693V117.1H109.433ZM109.433 140.2V143H143.593V140.2H109.433ZM165.681 143C174.921 143 182.831 139.08 182.831 131.31C182.831 124.52 177.581 121.16 170.301 118.29L163.441 115.56C155.531 112.41 151.821 109.68 151.821 105.2C151.821 100.23 157.281 96.8 165.401 96.8C171.211 96.8 177.091 99.25 179.751 102.47L181.921 100.72C178.491 96.45 171.911 94 165.401 94C156.301 94 149.021 98.2 149.021 105.2C149.021 111.64 154.621 115.07 162.391 118.15L169.251 120.88C176.111 123.54 180.031 126.13 180.031 131.31C180.031 136.84 174.291 140.2 165.681 140.2C156.091 140.2 150.561 135.65 149.161 134.18L147.131 136.14C149.021 138.1 155.181 143 165.681 143ZM207.06 143V96.8H226.66V94H184.66V96.8H204.26V143H207.06Z" fill="#2DC653"/>
<path d="M255.82 143V94H253.02V143H255.82ZM303.362 143V94H300.562V138.8L267.312 94H264.162V143H266.962V98.2L300.212 143H303.362ZM371.229 144.19L372.769 141.81L365.909 137.47C370.669 132.92 373.119 125.99 373.119 118.5C373.119 111.85 371.229 105.76 367.519 101.28C363.809 96.8 358.279 94 351.419 94C337.069 94 329.719 105.69 329.719 118.5C329.719 131.31 337.069 143 351.419 143C356.179 143 360.309 141.67 363.599 139.36L371.229 144.19ZM351.419 140.2C339.589 140.2 332.519 130.96 332.519 118.5C332.519 106.04 339.589 96.8 351.419 96.8C363.249 96.8 370.319 106.04 370.319 118.5C370.319 125.85 367.799 132.08 363.459 135.93L352.189 128.86L350.649 131.24L361.009 137.75C358.349 139.29 355.199 140.2 351.419 140.2ZM382.9 143V119.9H412.02V117.1H382.9V96.8H415.52V94H380.1V143H382.9ZM435.898 94H432.888L411.818 143H414.898L434.428 97.57L453.958 143H456.968L435.898 94ZM494.039 143H497.049L496.769 142.44C496.139 140.97 494.809 137.96 492.779 133.41C490.749 128.86 489.139 125.57 487.949 123.61C486.689 121.72 485.499 120.39 484.309 119.69C487.319 119.34 489.839 118.08 491.799 116.05C493.689 114.02 494.669 111.01 494.669 107.02C494.669 102.33 493.339 98.97 490.609 96.94C487.879 94.98 484.099 94 479.409 94H464.639V96.8H479.409C483.469 96.8 486.549 97.57 488.719 99.04C490.819 100.58 491.869 103.24 491.869 107.02C491.869 110.73 490.819 113.39 488.789 114.86C486.689 116.33 483.679 117.1 479.759 117.1H464.639V119.9H476.399C478.989 119.9 481.159 120.53 482.909 121.86C484.659 123.19 486.759 126.76 489.349 132.5C491.939 138.24 493.479 141.74 494.039 143ZM555.119 143V94H552.599L529.919 124.03L507.239 94H504.719V143H507.519V99.04L529.919 128.65L552.319 99.04V143H555.119Z" fill="#44FF4C"/>
</svg>
