<?xml version="1.0" encoding="UTF-8"?>
<svg id="_Слой_2" data-name="Слой 2" xmlns="http://www.w3.org/2000/svg" viewBox="0 0 991.28 441.54">
  <defs>
    <style>
      .cls-1 {
        fill: #2dc653;
      }

      .cls-2 {
        fill: #6ede8a;
      }

      .cls-3 {
        fill: #4ad66d;
      }
    </style>
  </defs>
  <g id="_Слой_1-2" data-name="Слой 1">
    <g>
      <path d="M491.17,304.9h-33.8V119.92h103.45v32.89h-69.66v43.21h65.66v32.76h-65.66v76.11Z"/>
      <path d="M664.54,305.54l-7.35-37.02h-46.57l-7.35,36.38h-36.76l37.54-185.1h59.72l36.89,181.75-36.12,4Zm-13.93-69.79l-16.77-83.2-16.64,83.2h33.41Z"/>
      <path d="M794.56,307.09l-23.35-62.3h-29.15v60.24h-33.79V119.92h97.9l14.96,14.96v94.94l-14.32,14.45,22.19,59.08-34.44,3.74Zm-7.22-95.07v-59.21h-45.28v59.21h45.28Z"/>
      <path d="M991.28,304.9h-33.8v-106.03l-39.6,92.62-39.6-92.62v106.03h-33.8V119.79h33.8l39.6,92.49,39.6-92.49h33.8v185.1Z"/>
    </g>
    <g>
      <polygon class="cls-1" points="0 110.38 191.17 0 382.35 110.38 318.57 147.16 191.16 73.59 63.74 147.16 0 110.38"/>
      <polygon class="cls-1" points="191.16 147.18 254.88 183.97 191.17 220.77 127.43 183.97 191.16 147.18"/>
      <polygon class="cls-3" points="0 110.38 0 331.15 191.17 441.54 191.16 367.95 63.74 294.34 63.74 147.16 0 110.38"/>
      <polygon class="cls-3" points="127.43 183.97 127.42 257.55 191.16 294.36 191.17 220.77 127.43 183.97"/>
      <polygon class="cls-2" points="191.16 367.95 254.88 331.15 254.88 404.74 191.17 441.54 191.16 367.95"/>
      <polygon class="cls-2" points="191.16 294.36 191.17 220.77 254.88 183.97 254.88 220.77 318.61 183.97 318.57 147.16 382.35 110.38 382.35 331.15 318.61 367.95 318.57 220.75 191.16 294.36"/>
    </g>
  </g>
</svg>